<svg width="735" height="180" viewBox="0 0 735 180" fill="none" xmlns="http://www.w3.org/2000/svg">
<g clip-path="url(#clip0_2_59)">
<mask id="mask0_2_59" style="mask-type:luminance" maskUnits="userSpaceOnUse" x="494" y="23" width="240" height="138">
<path d="M733.694 23.4977H494.002V160.298H733.694V23.4977Z" fill="white"/>
</mask>
<g mask="url(#mask0_2_59)">
<path d="M506.604 399.114L481.94 380.676L563.864 -155.919L588.529 -137.481L506.604 399.114Z" fill="#00B0DB"/>
<path d="M553.453 434.043L528.789 415.654L610.664 -120.94L635.329 -102.503L553.453 434.043Z" fill="#00B0DB"/>
<path d="M600.253 469.022L575.588 450.584L657.513 -85.9621L682.178 -67.5729L600.253 469.022Z" fill="#00B0DB"/>
<path d="M647.102 504L622.437 485.562L704.313 -50.9839L728.978 -32.5947L647.102 504Z" fill="#00B0DB"/>
</g>
<path d="M524.406 102.21H-0.318329V160.053H524.406V102.21Z" fill="#00B0DB"/>
<path d="M199.871 51.3728C199.871 77.8863 182.357 90.6809 146.211 90.6809C118.384 90.6809 104.276 82.0215 104.276 63.3404C104.276 36.8269 121.838 24.1296 157.936 24.1296C185.763 24.1296 199.871 32.6917 199.871 51.3728ZM179.828 53.3674C179.828 42.9566 172.53 40.8647 154.968 40.8647C129.038 40.8647 124.32 44.8053 124.32 61.3945C124.32 71.8053 131.763 73.8972 149.082 73.8972C175.011 73.8972 179.828 69.8593 179.828 53.3674Z" fill="#FAFAFA" fill-opacity="0.980392"/>
<path d="M341.729 50.8861C355.691 50.8861 363.134 55.8969 363.134 65.5293C363.134 79.4915 354.378 89.6104 331.415 89.6104H274.205L276.637 73.0212H335.94C341.34 73.0212 343.626 71.2699 343.626 67.5239C343.626 64.9455 341.583 63.6807 337.545 63.6807H302.372C287.729 63.6807 281.161 57.5023 281.161 48.1618C281.161 35.0753 290.113 25.1509 312.686 25.1509H369.653L367.124 41.9347H308.161C302.761 41.9347 300.475 43.3942 300.475 47.2374C300.475 49.8645 302.518 50.8861 306.653 50.8861H341.729Z" fill="#FAFAFA" fill-opacity="0.980392"/>
<path d="M242.535 88.3464L220.594 64.9464L216.216 89.9032H204.248L209.697 54.6329C210.67 48.9896 213.151 46.7031 219.037 46.7031C220.643 46.7031 222.2 47.0923 223.951 48.9896L245.892 72.3896L250.319 47.4329H262.286L256.886 82.6545C255.865 88.2977 252.654 90.6815 248.81 90.6815C247.01 90.6815 244.335 90.2923 242.535 88.395V88.3464Z" fill="#FAFAFA" fill-opacity="0.980392"/>
<path d="M377.562 89.9039H364.865L371.189 47.3849H384.276L377.562 89.9039Z" fill="#FAFAFA" fill-opacity="0.980392"/>
<path d="M448.856 47.4325L447.153 58.4757H423.169L417.575 89.9514H404.44L409.986 58.4757H390.04L391.742 47.4325H448.856Z" fill="#FAFAFA" fill-opacity="0.980392"/>
<path d="M496.966 79.0054L495.312 89.9514H445.301L451.577 47.4325H501.734L500.08 58.4757H464.031L463.155 63.5352H499.301L497.842 73.0703L461.453 73.2163L460.431 79.0054H496.966Z" fill="#FAFAFA" fill-opacity="0.980392"/>
<path d="M116.757 112.632H123.111V149.588H116.757V112.632Z" fill="white"/>
<path d="M158.447 112.632L176.925 138.096V112.632H183.279V149.588H177.556L159.078 124.17V149.588H152.723V112.632H158.447Z" fill="white"/>
<path d="M223.883 134.174C218.43 132.281 212.3 129.307 212.3 122.457C212.3 117.229 216.943 112.001 224.379 112.001C231.815 112.001 236.412 117.86 236.412 117.86L232.04 122.186C232.04 122.186 228.976 117.995 224.379 117.995C221.224 117.995 218.745 119.933 218.745 122.411C218.745 125.611 221.63 126.648 226.722 128.541C232.356 130.659 237.088 133.183 237.088 139.898C237.088 146.613 231.184 150.219 224.198 150.219C214.96 150.219 210.678 142.647 210.678 142.647L215.41 138.636C215.41 138.636 218.565 144.179 224.198 144.179C227.353 144.179 230.643 142.917 230.643 139.898C230.643 136.878 228.255 135.662 223.883 134.129V134.174Z" fill="white"/>
<path d="M265.438 112.632H271.792V149.588H265.438V112.632Z" fill="white"/>
<path d="M326.187 142.511V134.714H317.805V128.81H332.452V145.621C332.452 145.621 327.765 150.263 318.751 150.263C307.935 150.263 299.327 142.06 299.327 131.154C299.327 120.247 307.664 112.045 318.481 112.045C327.584 112.045 332.181 117.588 332.181 117.588L327.855 121.825C327.855 121.825 324.79 117.949 318.526 117.949C311.089 117.949 305.816 124.033 305.816 131.154C305.816 138.274 311.36 144.359 318.796 144.359C324.069 144.359 326.232 142.556 326.232 142.556L326.187 142.511Z" fill="white"/>
<path d="M382.297 112.632H388.652V149.588H382.297V133.679H366.523V149.588H360.169V112.632H366.523V127.685H382.297V112.632Z" fill="white"/>
<path d="M424.572 118.671H414.387V112.632H441.112V118.671H430.927V149.633H424.572V118.671Z" fill="white"/>
<path d="M478.61 134.174C473.157 132.281 467.028 129.307 467.028 122.457C467.028 117.229 471.67 112.001 479.106 112.001C486.542 112.001 491.139 117.86 491.139 117.86L486.768 122.186C486.768 122.186 483.703 117.995 479.106 117.995C475.951 117.995 473.473 119.933 473.473 122.411C473.473 125.611 476.357 126.648 481.45 128.541C487.083 130.659 491.815 133.183 491.815 139.898C491.815 146.613 485.911 150.219 478.926 150.219C469.687 150.219 465.405 142.647 465.405 142.647L470.138 138.636C470.138 138.636 473.292 144.179 478.926 144.179C482.081 144.179 485.371 142.917 485.371 139.898C485.371 136.878 482.982 135.662 478.61 134.129V134.174Z" fill="white"/>
</g>
<defs>
<clipPath id="clip0_2_59">
<rect width="734.595" height="180" fill="white"/>
</clipPath>
</defs>
</svg>
